<svg viewBox="0 0 240 217" width="140" height="117" class="css-1j8o68f"><defs id="SvgjsDefs2111"></defs><g id="SvgjsG2112" featurekey="rootContainer" transform="matrix(1,0,0,1,0,0)" fill="#283c63"><rect xmlns="http://www.w3.org/2000/svg" width="240" height="217" rx="10" ry="10"></rect></g><g id="SvgjsG2113" featurekey="q4o0QG-0" transform="matrix(11.91895064457128,0,0,11.91895064457128,13.802145892158876,-42.693683118476244)" fill="#fbe8d3"><path d="M4.26 7.779999999999999 l-1.78 -0.02 l0.02 2.24 l0.3 1.2 l1.24 0.16 l0.86 -0.18 l0.34 -0.98 l-0.1 -1.36 l-0.54 -0.92 z M3.68 13.4 l-1.24 -0.12 l-0.12 4.38 l1.12 0.12 l0.7 -0.1 l0.6 -1.08 l-0.06 -1.58 l-0.3 -1.02 z M0.52 9.06 l0.1 -3.8 l4.4 0.04 l2.02 0.3 l0.92 0.7 l0.32 3.08 l-0.5 1.9 l-0.42 0.4 l-0.94 0.4 l0.84 0.26 l0.34 0.36 l0.46 0.88 l0.22 1.76 l-0.22 3.52 l-0.28 0.46 l-1.24 0.36 l-2.16 0.32 l-3.76 -0.04 l-0.04 -5.74 z M15.219999999999999 12.219999999999999 l-0.28 -6.92 l0.16 0 l1.7 0.04 l0.5 14.64 l-2.24 0.1 l-0.1 -5.82 l-2.16 0.12 l-0.14 5.62 l-2.36 0 l-0.82 -0.04 l0 -2.56 l-0.16 -4.62 l0.2 -7.48 l3.32 0.06 l-0.08 6.92 z"></path></g></svg>