<svg fill="none" viewBox="0 0 154 15" xmlns="http://www.w3.org/2000/svg"><path d="M1.885 13.22c4.476-1.82 8.71-3.173 13.007-5.202 2.591-1.224 7.334-2.49 10.212-2.601 7.03-.27 12.522 4.335 19.317 4.335 4.9 0 7.61-1.456 11.61-4.335 2.42-1.743 5.694-4.326 8.96-3.276 2.513.808 3.928 3.583 6.07 5.01 2.277 1.518 4.768 2.601 7.562 2.601 7.874 0 14.768-4.817 22.593-6.07 5.802-.928 18.73-3.4 23.797.868 3.391 2.855 11.377 6.598 15.656 4.672 4.64-2.088 6.681-7.274 12.091-7.274" stroke="#000" stroke-width="2" stroke-linecap="round" stroke-linejoin="round"/></svg>